<svg width="30" height="50" viewBox="0 0 30 50" fill="none" xmlns="http://www.w3.org/2000/svg">
<path d="M29.5742 47.4164C29.5771 46.7568 29.2914 46.1287 28.7914 45.6985C24.7746 42.2425 20.7355 38.8499 16.6742 35.5206C14.0688 33.3599 11.4633 31.1859 8.85795 28.9985C6.23835 26.7991 6.25581 22.7667 8.89436 20.5901C11.5186 18.4253 14.1427 16.2739 16.7668 14.1359C20.8568 10.8419 24.9251 7.48437 28.9716 4.0633C29.4754 3.63743 29.7665 3.0119 29.7693 2.35228V2.35228C29.7776 0.443058 27.56 -0.612383 26.0863 0.601403C21.8212 4.11418 17.571 7.64868 13.3358 11.2049C9.57858 14.3104 5.80956 17.4158 2.02872 20.5211C-0.639995 22.713 -0.657465 26.7928 1.98679 29.0142C5.74225 32.169 9.48581 35.3409 13.2175 38.5298C17.4211 42.066 21.6398 45.6022 25.8735 49.1385C27.3388 50.3625 29.566 49.3256 29.5742 47.4164V47.4164Z" fill="black"/>
</svg>
