<svg width="122" height="62" viewBox="0 0 122 62" fill="none" xmlns="http://www.w3.org/2000/svg">
<path d="M38.8507 24.6225C40.2573 24.6286 41.5178 25.0576 42.6322 25.9095V25.9095C44.4998 27.2299 43.5436 29.843 41.4338 30.7265C40.2733 31.2125 39.1128 31.6985 37.9523 32.1845C36.7001 32.6969 35.4431 33.2145 34.1812 33.7371C32.3544 34.4938 30.2469 33.3256 30.7061 31.4023V31.4023C31.0002 30.133 31.51 28.9993 32.2357 28.0014C32.9976 26.9651 33.9389 26.1414 35.0597 25.5302C36.2165 24.9191 37.4801 24.6165 38.8507 24.6225ZM45.1459 42.5075C45.5703 42.1585 45.6096 41.536 45.2734 41.1013V41.1013C44.8733 40.5843 44.1122 40.5436 43.5892 40.9358C43.0712 41.3242 42.5127 41.6471 41.9137 41.9045C40.9381 42.3238 39.8912 42.5311 38.7732 42.5262C37.078 42.5189 35.5652 42.0503 34.2347 41.1205V41.1205C32.0754 39.6113 33.228 36.621 35.6556 35.5978C36.9999 35.0312 38.3401 34.4735 39.676 33.9246C41.4228 33.2162 43.1696 32.5004 44.9165 31.7773C46.7425 31.0213 47.7469 28.955 46.7381 27.2556V27.2556C46.1653 26.252 45.5018 25.4021 44.7474 24.7058C43.9572 23.9323 43.0581 23.3508 42.0499 22.9614C41.0418 22.5335 39.9788 22.3172 38.8607 22.3123C37.382 22.3059 35.992 22.6079 34.691 23.2184C33.4261 23.7904 32.3046 24.5749 31.3265 25.5717C30.3484 26.5686 29.5858 27.7589 29.0388 29.1427C28.4918 30.5264 28.2149 31.9883 28.2083 33.5284C28.2014 35.1071 28.4656 36.5713 29.0008 37.9213C29.5359 39.2712 30.2882 40.4681 31.2575 41.5119C32.2268 42.5556 33.3414 43.369 34.6012 43.952C35.8971 44.5352 37.2844 44.83 38.7632 44.8364C40.1698 44.8425 41.4694 44.5786 42.6619 44.0447C43.5612 43.6421 44.3892 43.1297 45.1459 42.5075Z" fill="black"/>
<path d="M76.2342 44.5944C76.8562 44.597 77.3626 44.095 77.3653 43.473V43.473C77.368 42.851 76.8659 42.3446 76.244 42.3419L75.3685 42.3382C74.2629 42.3334 73.3706 41.4333 73.3754 40.3278L73.5314 4.29599C73.5387 2.62278 72.1881 1.2605 70.5149 1.25325L68.6115 1.24501C67.9895 1.24232 67.4831 1.74435 67.4804 2.36634V2.36634C67.4777 2.98832 67.9798 3.49473 68.6018 3.49742L69.3961 3.50086C70.4568 3.50545 71.3129 4.36904 71.3084 5.42973L71.2337 22.6835C71.2291 23.7231 71.2255 24.5701 71.2226 25.2247C71.2222 25.326 71.2222 25.432 71.2226 25.5426C71.2242 26.0142 70.4219 26.2318 70.1379 25.8553V25.8553C69.6717 25.2372 69.0611 24.657 68.306 24.1147C67.5507 23.6109 66.6869 23.2029 65.7144 22.8906C64.778 22.5786 63.8049 22.4203 62.795 22.416C61.2802 22.4094 59.8723 22.7113 58.5712 23.3217C57.3063 23.8938 56.1848 24.6783 55.2067 25.6751C54.2286 26.672 53.466 27.8623 52.919 29.2461C52.372 30.6298 52.0952 32.0917 52.0885 33.6318C52.0816 35.2105 52.3458 36.6747 52.881 38.0247C53.4162 39.3746 54.1684 40.5715 55.1377 41.6153C56.107 42.659 57.2216 43.4724 58.4814 44.0554C59.7773 44.6386 61.1827 44.9335 62.6975 44.94C63.7795 44.9447 64.79 44.7951 65.7291 44.4911C66.7042 44.1873 67.5717 43.7675 68.3314 43.2318C69.0549 42.7344 69.6705 42.1787 70.1781 41.5649C70.3926 41.3076 70.5847 41.0473 70.7543 40.7838C70.9024 40.5538 71.3722 40.6611 71.371 40.9347V40.9347C71.3694 41.3198 71.3675 41.7433 71.3655 42.2053V42.2053C71.3599 43.5131 72.4154 44.5778 73.7232 44.5835L76.2342 44.5944ZM62.785 24.7261C63.9031 24.731 64.9661 24.9473 65.9742 25.3752C66.9822 25.8031 67.8633 26.4038 68.6173 27.1771C69.4073 27.9891 70.0342 28.9736 70.4981 30.1307C70.9621 31.2493 71.1914 32.4439 71.1859 33.7145C71.1804 34.9851 70.9408 36.1777 70.4671 37.2922C70.0294 38.4069 69.4122 39.3476 68.6154 40.1142C67.8184 40.9193 66.914 41.5507 65.9021 42.0084C64.9265 42.4277 63.8616 42.6349 62.7075 42.6299C61.5173 42.6247 60.4182 42.4082 59.4101 41.9803C58.4383 41.514 57.5755 40.875 56.8216 40.0632C56.0314 39.2897 55.4043 38.3436 54.9403 37.225C54.5123 36.1066 54.3011 34.912 54.3066 33.6414C54.3119 32.4094 54.5333 31.2552 54.9708 30.179C55.4084 29.0643 56.0077 28.1043 56.7686 27.299C57.5295 26.4938 58.4159 25.8623 59.4278 25.4046C60.4397 24.947 61.5587 24.7208 62.785 24.7261Z" fill="black"/>
<path d="M90.4672 44.656C91.0892 44.6587 91.5956 44.1566 91.5983 43.5347V43.5347C91.601 42.9127 91.099 42.4063 90.477 42.4036L89.6015 42.3998C88.496 42.395 87.6037 41.4949 87.6084 40.3894L87.6413 32.8039C87.6464 31.6104 87.8856 30.514 88.3588 29.515C88.8322 28.4775 89.4851 27.6332 90.3175 26.9823C91.0416 26.3308 91.8733 25.8339 92.8126 25.4914C93.4514 25.242 94.1132 25.0753 94.7977 24.9912C95.4106 24.916 95.9231 24.4417 95.9539 23.825V23.825C95.9879 23.1459 95.4283 22.579 94.7594 22.7011C94.3486 22.7762 93.9377 22.8795 93.5266 23.0111C92.732 23.2771 91.9549 23.6588 91.1953 24.1561C90.3997 24.6532 89.6756 25.2853 89.023 26.0526C88.6639 26.4774 88.3413 26.9416 88.0553 27.4451C87.9036 27.7122 87.4473 27.6235 87.4486 27.3164V27.3164C87.4495 27.1239 87.4333 26.7003 87.4 26.0456L87.3854 25.7457C87.3101 24.1973 86.0362 22.9786 84.486 22.9719L82.6967 22.9642C82.0747 22.9615 81.5683 23.4635 81.5656 24.0855V24.0855C81.5629 24.7075 82.0649 25.2139 82.6869 25.2166L83.5083 25.2201C84.5839 25.2248 85.4521 26.1005 85.4475 27.1762L85.3908 40.2716C85.3857 41.4369 84.437 42.3774 83.2717 42.3724L82.288 42.3681C81.666 42.3654 81.1596 42.8675 81.157 43.4894V43.4894C81.1543 44.1114 81.6563 44.6178 82.2783 44.6205L90.4672 44.656Z" fill="black"/>
<path d="M117.995 41.8874C118.937 40.8519 119.681 39.6615 120.228 38.3163C120.811 36.9712 121.106 35.5093 121.113 33.9307C121.12 32.3906 120.837 30.9262 120.266 29.5377C119.731 28.1492 118.997 26.9332 118.064 25.8895C117.094 24.8843 115.944 24.09 114.612 23.5066C113.316 22.885 111.929 22.5709 110.45 22.5645C108.971 22.5581 107.581 22.8601 106.28 23.4706C104.979 24.0425 103.858 24.8269 102.916 25.824C101.938 26.8593 101.175 28.0689 100.628 29.4526C100.081 30.8364 99.804 32.2983 99.7973 33.8384C99.7905 35.417 100.055 36.9006 100.59 38.289C101.125 39.6389 101.877 40.8165 102.847 41.8218C103.78 42.8655 104.876 43.6788 106.136 44.2618C107.432 44.8449 108.837 45.1398 110.352 45.1464C111.831 45.1528 113.221 44.87 114.522 44.2981C115.859 43.7263 117.016 42.9228 117.995 41.8874ZM104.423 40.1538C103.669 39.3804 103.078 38.4538 102.649 37.3738C102.221 36.2939 102.01 35.1186 102.015 33.848C102.021 32.6159 102.242 31.4618 102.68 30.3856C103.117 29.3094 103.716 28.3494 104.477 27.5056C105.238 26.7003 106.125 26.0689 107.137 25.6112C108.149 25.1536 109.232 24.9272 110.386 24.9322C111.54 24.9372 112.621 25.1729 113.629 25.6393C114.673 26.1059 115.572 26.7451 116.325 27.5569C117.115 28.4074 117.724 29.3919 118.152 30.5103C118.58 31.5903 118.792 32.7271 118.787 33.9206C118.781 35.1912 118.56 36.3646 118.122 37.4408C117.685 38.517 117.067 39.4384 116.271 40.2051C115.51 41.0488 114.605 41.6995 113.557 42.157C112.545 42.6146 111.462 42.841 110.308 42.836C109.154 42.831 108.073 42.5953 107.065 42.1289C106.057 41.6625 105.176 41.0041 104.423 40.1538Z" fill="black"/>
<path d="M33.5742 56.4164C33.5771 55.7568 33.2914 55.1287 32.7914 54.6985C28.7746 51.2425 24.7355 47.8499 20.6742 44.5206C18.0688 42.3599 15.4633 40.1859 12.858 37.9985C10.2383 35.7991 10.2558 31.7667 12.8944 29.5901C15.5186 27.4253 18.1427 25.2739 20.7668 23.1359C24.8568 19.8419 28.9251 16.4844 32.9716 13.0633C33.4754 12.6374 33.7665 12.0119 33.7693 11.3523V11.3523C33.7776 9.44306 31.56 8.38762 30.0863 9.6014C25.8212 13.1142 21.571 16.6487 17.3358 20.2049C13.5786 23.3104 9.80956 26.4158 6.02872 29.5211C3.36001 31.713 3.34253 35.7928 5.98679 38.0142C9.74225 41.169 13.4858 44.3409 17.2175 47.5298C21.4211 51.066 25.6398 54.6022 29.8735 58.1385C31.3388 59.3625 33.566 58.3256 33.5742 56.4164V56.4164Z" fill="black"/>
</svg>
