<svg width="51" height="31" viewBox="0 0 51 31" fill="none" xmlns="http://www.w3.org/2000/svg">
<path d="M2.74458 30.2084C3.40421 30.2084 4.031 29.92 4.45905 29.4181C7.89761 25.3864 11.2727 21.3327 14.5844 17.2571C16.7338 14.6423 18.8965 12.0274 21.0726 9.41261C23.2606 6.78351 27.2931 6.78351 29.4811 9.41261C31.6572 12.0274 33.8199 14.6423 35.9693 17.2571C39.281 21.3327 42.6561 25.3864 46.0947 29.4181C46.5227 29.92 47.1495 30.2084 47.8091 30.2084V30.2084C49.7184 30.2084 50.7642 27.9863 49.544 26.5178C46.0128 22.268 42.46 18.0332 38.8854 13.8134C35.7637 10.0696 32.642 6.31409 29.5203 2.54673C27.3169 -0.112463 23.237 -0.112269 21.0272 2.54158C17.8886 6.31067 14.733 10.0679 11.5603 13.8134C8.04235 18.0323 4.5244 22.2662 1.00646 26.5152C-0.211129 27.9858 0.83535 30.2084 2.74458 30.2084V30.2084Z" fill="#2F211A"/>
</svg>
