<svg width="125" height="213" viewBox="0 0 125 213" fill="none" xmlns="http://www.w3.org/2000/svg">
<path d="M49.8419 0.111195C36.7319 0.870349 25.2434 5.90838 15.2384 15.2598C8.26938 21.7471 2.71488 31.6506 0.886376 40.795C0.368875 43.4175 -0.114125 49.1112 0.0238754 51.0781C0.368875 56.3232 0.644876 58.152 1.54188 61.6718C5.44038 77.1654 16.6874 90.3471 32.7644 98.3527C35.6969 99.802 39.9059 101.596 40.0439 101.424C40.0784 101.389 39.0089 100.458 37.6634 99.388C22.3454 87.345 14.0654 72.2654 14.7554 57.7034C15.3419 46.2816 21.1724 35.5154 30.7634 28.338C38.5259 22.5063 47.4614 19.4006 56.6039 19.4006C80.3744 19.4006 98.2454 39.2767 104.869 73.0936C105.352 75.5091 105.732 77.8211 105.766 78.2006V78.9253L106.077 78.2006C107.077 75.6816 108.595 60.188 108.285 55.1154C107.94 48.4901 107.698 46.2126 107.112 43.176C104.283 28.476 96.6929 16.5711 85.4114 9.15204C75.3029 2.49218 62.9864 -0.64796 49.8419 0.111195Z" fill="#00000030"/>
<path d="M99.7634 84.5845C102.144 86.9654 103.11 89.4845 102.834 92.3831C102.73 93.5218 101.764 97.076 100.66 100.32L98.6939 106.186L98.6594 110.844C98.6594 115.227 98.7284 115.606 99.5909 117.401C100.626 119.54 102.661 121.68 105.421 123.577C108.423 125.613 108.63 126.372 108.561 133.861C108.457 142.729 109.251 145.765 112.563 148.975C114.736 151.149 121.498 153.875 122.395 152.977C122.568 152.805 122.775 151.666 122.878 150.458C123.189 146.421 121.671 141.97 118.669 138.07C117.048 136 112.908 129.582 107.94 121.542L104.869 116.538L104.904 112.742C104.904 110.637 104.973 105.358 105.042 101.01C105.214 92.5556 104.904 90.1401 103.351 87.1035C102.696 85.7922 100.177 83.2387 99.5564 83.2387C99.3839 83.2387 98.9354 83.1352 98.5904 82.9971C98.2454 82.8936 98.7629 83.5838 99.7634 84.5845Z" fill="#00000030"/>
<path d="M98.3489 156.808C98.2454 157.256 98.1419 158.464 98.1419 159.499C98.1419 165.434 102.144 172.75 109.975 181.135C117.117 188.796 119.98 195.179 122.844 209.81C123.672 214.055 123.879 213.261 124.396 203.668C125.086 191.453 124.12 185.449 120.601 180.169C119.497 178.478 116.427 175.131 111.424 170.196C106.387 165.193 103.179 161.673 101.523 159.396C100.212 157.567 99.0044 156.049 98.8319 156.049C98.6939 156.049 98.4869 156.394 98.3489 156.808Z" fill="#00000030"/>
</svg>
