<svg width="107" height="55" viewBox="0 0 107 55" fill="none" xmlns="http://www.w3.org/2000/svg">
<path d="M34.1416 21.6758C35.3731 21.6811 36.4767 22.0567 37.4524 22.8025V22.8025C39.0875 23.9586 38.2503 26.2464 36.4032 27.0199C35.3872 27.4454 34.3711 27.8709 33.3551 28.2964C32.2588 28.745 31.1582 29.1981 30.0534 29.6557C28.4541 30.3182 26.609 29.2954 27.011 27.6116V27.6116C27.2684 26.5003 27.7148 25.5077 28.3502 24.634C29.0172 23.7267 29.8413 23.0055 30.8226 22.4704C31.8354 21.9354 32.9417 21.6706 34.1416 21.6758ZM39.6531 37.3343C40.0248 37.0287 40.0591 36.4837 39.7648 36.1032V36.1032C39.4145 35.6505 38.7482 35.6148 38.2903 35.9582C37.8368 36.2982 37.3478 36.581 36.8234 36.8064C35.9692 37.1735 35.0527 37.3549 34.0738 37.3507C32.5897 37.3442 31.2652 36.934 30.1003 36.1199C30.0484 36.0836 29.9971 36.0468 29.9463 36.0095C28.1723 34.7055 29.1413 32.2144 31.1698 31.3584C32.4053 30.837 33.6368 30.3242 34.8642 29.8199C36.3936 29.1997 37.9229 28.573 39.4523 27.9398C41.051 27.278 41.9304 25.4689 41.0471 23.9811V23.9811C40.5457 23.1025 39.9647 22.3583 39.3042 21.7487C38.6125 21.0715 37.8252 20.5624 36.9425 20.2215C36.06 19.8469 35.1293 19.6574 34.1504 19.6532C32.8557 19.6476 31.6389 19.912 30.4998 20.4464C29.3924 20.9473 28.4105 21.6341 27.5541 22.5068C26.6978 23.3796 26.0301 24.4217 25.5512 25.6332C25.0723 26.8447 24.8299 28.1246 24.8241 29.473C24.8181 30.8551 25.0494 32.1371 25.5179 33.319C25.9865 34.5009 26.6451 35.5487 27.4937 36.4626C28.3423 37.3764 29.3182 38.0886 30.4212 38.599C31.5557 39.1095 32.7704 39.3676 34.065 39.3732C35.2965 39.3786 36.4343 39.1475 37.4784 38.6801C38.2657 38.3276 38.9907 37.879 39.6531 37.3343Z" fill="black"/>
<path d="M66.8713 39.1613C67.4158 39.1637 67.8592 38.7241 67.8616 38.1796V38.1796C67.8639 37.635 67.4244 37.1917 66.8798 37.1893L66.1133 37.186C65.1454 37.1818 64.3642 36.3938 64.3684 35.4259L64.505 3.87969C64.5113 2.41478 63.3289 1.22209 61.864 1.21575L60.1975 1.20854C59.653 1.20618 59.2096 1.64572 59.2073 2.19027V2.19027C59.2049 2.73483 59.6444 3.17819 60.189 3.18054L60.8845 3.18355C61.8131 3.18758 62.5627 3.94366 62.5587 4.87231L62.4933 19.9782C62.4893 20.8883 62.4861 21.6299 62.4836 22.203C62.4832 22.2917 62.4832 22.3845 62.4836 22.4813C62.485 22.8942 61.7825 23.0847 61.5339 22.7551V22.7551C61.1257 22.214 60.5911 21.706 59.9301 21.2312C59.2688 20.7901 58.5125 20.4329 57.6611 20.1595C56.8413 19.8863 55.9893 19.7477 55.1051 19.7439C53.7789 19.7382 52.5462 20.0025 51.4071 20.5369C50.2997 21.0378 49.3179 21.7246 48.4615 22.5974C47.6051 23.4701 46.9375 24.5122 46.4586 25.7237C45.9797 26.9352 45.7373 28.2152 45.7315 29.5635C45.7255 30.9456 45.9568 32.2276 46.4253 33.4095C46.8939 34.5914 47.5524 35.6392 48.4011 36.5531C49.2497 37.4669 50.2255 38.1791 51.3285 38.6895C52.4631 39.2001 53.6935 39.4582 55.0197 39.464C55.9671 39.4681 56.8518 39.3371 57.674 39.0709C58.5277 38.805 59.2872 38.4374 59.9523 37.9684C60.5858 37.5329 61.1247 37.0464 61.5691 36.509C61.7569 36.2838 61.9251 36.0558 62.0736 35.8252C62.2033 35.6238 62.6146 35.7177 62.6135 35.9573V35.9573C62.6121 36.2944 62.6105 36.6652 62.6087 37.0697V37.0697C62.6038 38.2147 63.5279 39.1468 64.6729 39.1518L66.8713 39.1613ZM55.0964 21.7665C56.0753 21.7707 57.006 21.9602 57.8885 22.3348C58.7711 22.7094 59.5424 23.2353 60.2026 23.9123C60.8943 24.6232 61.4431 25.4852 61.8493 26.4983C62.2555 27.4776 62.4563 28.5235 62.4514 29.6359C62.4466 30.7483 62.2368 31.7925 61.8221 32.7683C61.439 33.7442 60.8986 34.5677 60.201 35.2389C59.5032 35.9438 58.7114 36.4966 57.8255 36.8973C56.9713 37.2644 56.039 37.4458 55.0285 37.4414C53.9865 37.4369 53.0242 37.2473 52.1416 36.8727C51.2908 36.4645 50.5354 35.905 49.8753 35.1942C49.1835 34.517 48.6345 33.6887 48.2283 32.7094C47.8536 31.7302 47.6686 30.6844 47.6734 29.5719C47.6781 28.4932 47.872 27.4828 48.255 26.5406C48.6381 25.5646 49.1628 24.7241 49.829 24.0191C50.4951 23.3141 51.2712 22.7612 52.1571 22.3605C53.043 21.9599 54.0228 21.7618 55.0964 21.7665Z" fill="black"/>
<path d="M79.3325 39.2153C79.877 39.2176 80.3204 38.7781 80.3227 38.2335V38.2335C80.3251 37.689 79.8855 37.2456 79.341 37.2433L78.5745 37.24C77.6066 37.2358 76.8254 36.4477 76.8295 35.4799L76.8583 28.8387C76.8628 27.7937 77.0722 26.8339 77.4865 25.9592C77.901 25.0508 78.4726 24.3117 79.2013 23.7418C79.8353 23.1714 80.5635 22.7364 81.3858 22.4365C81.9452 22.2182 82.5245 22.0722 83.1238 21.9986C83.6605 21.9327 84.1091 21.5175 84.1361 20.9775V20.9775C84.1659 20.383 83.6759 19.8867 83.0903 19.9936C82.7306 20.0593 82.3709 20.1497 82.011 20.2649C81.3153 20.4979 80.6349 20.832 79.9699 21.2674C79.2733 21.7026 78.6394 22.2561 78.068 22.9278C77.7536 23.2997 77.4712 23.7061 77.2207 24.147C77.0879 24.3808 76.6885 24.3032 76.6896 24.0343V24.0343C76.6904 23.8657 76.6762 23.4949 76.6471 22.9217L76.6343 22.6591C76.5683 21.3035 75.453 20.2365 74.0958 20.2307L72.5292 20.2239C71.9847 20.2215 71.5413 20.6611 71.539 21.2056V21.2056C71.5366 21.7502 71.9761 22.1935 72.5207 22.1959L73.2398 22.199C74.1816 22.2031 74.9417 22.9698 74.9376 23.9115L74.888 35.3767C74.8836 36.3969 74.0529 37.2204 73.0327 37.216L72.1715 37.2122C71.6269 37.2099 71.1836 37.6494 71.1812 38.194V38.194C71.1789 38.7385 71.6184 39.1819 72.1629 39.1842L79.3325 39.2153Z" fill="black"/>
<path d="M103.433 36.7914C104.258 35.8848 104.91 34.8426 105.389 33.6648C105.899 32.4872 106.157 31.2073 106.163 29.8252C106.169 28.4768 105.922 27.1948 105.422 25.979C104.953 24.7634 104.311 23.6988 103.494 22.7851C102.645 21.9049 101.637 21.2095 100.471 20.6988C99.3368 20.1545 98.1222 19.8796 96.8276 19.874C95.5329 19.8684 94.316 20.1328 93.1769 20.6672C92.038 21.168 91.0561 21.8548 90.2313 22.7277C89.3748 23.6341 88.7071 24.6931 88.2282 25.9046C87.7493 27.1161 87.5069 28.396 87.5011 29.7444C87.4951 31.1265 87.7263 32.4253 88.1947 33.6409C88.6632 34.8228 89.3219 35.8538 90.1707 36.7339C90.9877 37.6477 91.9478 38.3597 93.0508 38.8702C94.1853 39.3807 95.4157 39.6389 96.742 39.6446C98.0366 39.6502 99.2534 39.4027 100.392 38.9019C101.563 38.4014 102.576 37.6978 103.433 36.7914ZM91.5506 35.2735C90.8904 34.5965 90.3729 33.7852 89.9981 32.8397C89.6232 31.8942 89.4382 30.8652 89.443 29.7528C89.4477 28.6741 89.6415 27.6636 90.0246 26.7214C90.4076 25.7792 90.9322 24.9387 91.5986 24.2C92.2647 23.4949 93.0408 22.9421 93.9267 22.5414C94.8126 22.1407 95.7608 21.9426 96.7712 21.9469C97.7817 21.9513 98.7281 22.1577 99.6105 22.566C100.525 22.9745 101.312 23.5341 101.972 24.2449C102.663 24.9895 103.196 25.8514 103.571 26.8306C103.946 27.7761 104.131 28.7714 104.126 29.8164C104.121 30.9288 103.928 31.9561 103.545 32.8983C103.162 33.8406 102.621 34.6473 101.924 35.3184C101.257 36.0572 100.465 36.6268 99.5479 37.0274C98.662 37.4281 97.7138 37.6262 96.7034 37.6218C95.6929 37.6175 94.7465 37.4111 93.8641 37.0028C92.9817 36.5944 92.2105 36.018 91.5506 35.2735Z" fill="black"/>
<path d="M29.522 49.5117C29.5245 48.9342 29.2744 48.3844 28.8366 48.0077C25.3199 44.982 21.7837 42.0117 18.228 39.0969C15.6988 36.9994 13.1696 34.8876 10.6405 32.7614C8.73638 31.1607 8.74908 28.2281 10.667 26.6438C13.2144 24.5396 15.7618 22.4498 18.309 20.3743C21.8899 17.4904 25.4517 14.5508 28.9945 11.5557C29.4355 11.1828 29.6904 10.6352 29.6929 10.0576V10.0576C29.7001 8.38611 27.7586 7.46206 26.4683 8.52474C22.7342 11.6002 19.0131 14.6947 15.3051 17.8082C11.7631 20.7358 8.2091 23.6633 4.64309 26.5908C2.70183 28.1845 2.68909 31.1517 4.61323 32.766C8.15475 35.7372 11.6842 38.7257 15.2015 41.7314C18.8819 44.8274 22.5754 47.9234 26.282 51.0195C27.5649 52.091 29.5148 51.1833 29.522 49.5117V49.5117Z" fill="black"/>
</svg>
