<svg width="22" height="11" viewBox="0 0 22 11" fill="none" xmlns="http://www.w3.org/2000/svg">
<path d="M6.94029 4.30119C7.19768 4.30119 7.42867 4.37869 7.63326 4.53369V4.53369C7.97604 4.77383 7.80314 5.25273 7.41779 5.41606C7.20583 5.50591 6.99387 5.59576 6.7819 5.6856C6.55318 5.78035 6.32358 5.87605 6.09309 5.97268C5.75942 6.11258 5.37288 5.9005 5.45538 5.54822V5.54822C5.50817 5.31572 5.60057 5.10788 5.73256 4.9247C5.87115 4.73448 6.04274 4.583 6.24733 4.47028C6.45852 4.35755 6.68951 4.30119 6.94029 4.30119ZM8.10636 7.5688C8.18375 7.5046 8.19044 7.39066 8.12857 7.3114V7.3114C8.05496 7.21711 7.91567 7.21026 7.82027 7.28244C7.7258 7.35392 7.62386 7.41345 7.51446 7.46103C7.33627 7.53853 7.14488 7.57728 6.94029 7.57728C6.63011 7.57728 6.35293 7.49273 6.10874 7.32365V7.32365C5.71242 7.04921 5.92095 6.50114 6.36435 6.31199C6.60989 6.20725 6.85467 6.10413 7.09869 6.00264C7.41775 5.87164 7.73682 5.73928 8.05588 5.60557C8.3894 5.4658 8.57156 5.0869 8.38561 4.77675V4.77675C8.28002 4.59357 8.15793 4.43857 8.01933 4.31176C7.87414 4.17085 7.70915 4.06517 7.52436 3.99472C7.33957 3.91722 7.14488 3.87847 6.94029 3.87847C6.66971 3.87847 6.41562 3.93483 6.17804 4.04756C5.94705 4.15324 5.74246 4.29767 5.56427 4.48085C5.38608 4.66403 5.24749 4.88243 5.14849 5.13606C5.0495 5.3897 5 5.65742 5 5.93923C5 6.22809 5.0495 6.49582 5.14849 6.7424C5.24749 6.98899 5.38608 7.2074 5.56427 7.39762C5.74246 7.58785 5.94705 7.7358 6.17804 7.84148C6.41562 7.94716 6.66971 8 6.94029 8C7.19768 8 7.43527 7.95068 7.65305 7.85205C7.81729 7.77767 7.96839 7.68325 8.10636 7.5688Z" fill="black"/>
<path d="M13.7966 7.92602C13.9104 7.92602 14.0026 7.83376 14.0026 7.71995V7.71995C14.0026 7.60613 13.9104 7.51387 13.7966 7.51387H13.6363C13.4341 7.51387 13.2701 7.34988 13.2701 7.14759V0.55437C13.2701 0.2482 13.0219 0 12.7157 0H12.3674C12.2536 0 12.1613 0.0922637 12.1613 0.206077V0.206077C12.1613 0.31989 12.2536 0.412154 12.3674 0.412154H12.5128C12.7069 0.412154 12.8642 0.569495 12.8642 0.763584V3.92074C12.8642 4.11096 12.8642 4.26596 12.8642 4.38573C12.8642 4.40428 12.8643 4.42367 12.8644 4.4439C12.8651 4.53019 12.7185 4.57065 12.6662 4.50198V4.50198C12.5804 4.38926 12.4682 4.28358 12.3296 4.18494C12.191 4.09335 12.0326 4.01937 11.8544 3.96301C11.6829 3.90665 11.5047 3.87847 11.3199 3.87847C11.0427 3.87847 10.7853 3.93483 10.5477 4.04756C10.3167 4.15324 10.1121 4.29767 9.93395 4.48085C9.75576 4.66403 9.61717 4.88243 9.51817 5.13606C9.41918 5.3897 9.36968 5.65742 9.36968 5.93923C9.36968 6.22809 9.41918 6.49582 9.51817 6.7424C9.61717 6.98899 9.75576 7.2074 9.93395 7.39762C10.1121 7.58785 10.3167 7.7358 10.5477 7.84148C10.7853 7.94716 11.0427 8 11.3199 8C11.5179 8 11.7027 7.97182 11.8742 7.91546C12.0524 7.85909 12.2108 7.78159 12.3494 7.68296C12.4814 7.59137 12.5936 7.48921 12.686 7.37649C12.725 7.32924 12.76 7.28146 12.7908 7.23312C12.8177 7.19091 12.9038 7.21017 12.9038 7.26024V7.26024C12.9038 7.33069 12.9038 7.40819 12.9038 7.49273V7.49273C12.9038 7.73203 13.0978 7.92602 13.3371 7.92602H13.7966ZM11.3199 4.30119C11.5245 4.30119 11.7192 4.33994 11.9039 4.41744C12.0887 4.49494 12.2504 4.60414 12.389 4.74505C12.5342 4.893 12.6497 5.07266 12.7355 5.28402C12.8213 5.48833 12.8642 5.70674 12.8642 5.93923C12.8642 6.17173 12.8213 6.39014 12.7355 6.59445C12.6563 6.79877 12.5441 6.97138 12.3989 7.11229C12.2537 7.26024 12.0887 7.37649 11.9039 7.46103C11.7258 7.53853 11.5311 7.57728 11.3199 7.57728C11.1021 7.57728 10.9008 7.53853 10.716 7.46103C10.5378 7.37649 10.3794 7.26024 10.2408 7.11229C10.0956 6.97138 9.98015 6.79877 9.89435 6.59445C9.81516 6.39014 9.77556 6.17173 9.77556 5.93923C9.77556 5.71378 9.81516 5.50242 9.89435 5.30515C9.97355 5.10084 10.0824 4.9247 10.221 4.77675C10.3596 4.6288 10.5213 4.51255 10.7061 4.42801C10.8909 4.34346 11.0955 4.30119 11.3199 4.30119Z" fill="black"/>
<path d="M16.401 7.92602C16.5148 7.92602 16.607 7.83376 16.607 7.71995V7.71995C16.607 7.60613 16.5148 7.51387 16.401 7.51387H16.2408C16.0385 7.51387 15.8745 7.34988 15.8745 7.14759V5.75958C15.8745 5.54117 15.9174 5.34038 16.0032 5.1572C16.089 4.96697 16.2078 4.81198 16.3596 4.69221C16.4915 4.57244 16.6433 4.48085 16.8149 4.41744C16.9316 4.37129 17.0526 4.34026 17.1778 4.32434C17.2899 4.31009 17.3833 4.2229 17.3884 4.11002V4.11002C17.3941 3.98573 17.2912 3.88245 17.1689 3.90533C17.0938 3.91938 17.0187 3.93861 16.9436 3.96301C16.7984 4.01233 16.6565 4.08278 16.5179 4.17437C16.3728 4.26596 16.2408 4.38221 16.122 4.52312C16.0566 4.60113 15.9979 4.68632 15.946 4.77869C15.9184 4.82768 15.8349 4.81181 15.8349 4.75561V4.75561C15.8349 4.72039 15.8316 4.64289 15.825 4.52312L15.8221 4.46825C15.8071 4.18499 15.573 3.96301 15.2893 3.96301H14.9619C14.8481 3.96301 14.7558 4.05528 14.7558 4.16909V4.16909C14.7558 4.2829 14.8481 4.37517 14.9619 4.37517H15.1122C15.309 4.37517 15.4686 4.53472 15.4686 4.73155V7.12779C15.4686 7.34102 15.2957 7.51387 15.0825 7.51387H14.9025C14.7887 7.51387 14.6964 7.60613 14.6964 7.71995V7.71995C14.6964 7.83376 14.7887 7.92602 14.9025 7.92602H16.401Z" fill="black"/>
<path d="M21.4357 7.39762C21.6073 7.2074 21.7426 6.98899 21.8416 6.7424C21.9472 6.49582 22 6.22809 22 5.93923C22 5.65742 21.9472 5.3897 21.8416 5.13606C21.7426 4.88243 21.6073 4.6605 21.4357 4.47028C21.2575 4.2871 21.0464 4.14267 20.8022 4.03699C20.5646 3.92426 20.3105 3.8679 20.0399 3.8679C19.7693 3.8679 19.5152 3.92426 19.2776 4.03699C19.0401 4.14267 18.8355 4.2871 18.6639 4.47028C18.4857 4.6605 18.3471 4.88243 18.2481 5.13606C18.1491 5.3897 18.0996 5.65742 18.0996 5.93923C18.0996 6.22809 18.1491 6.49934 18.2481 6.75297C18.3471 6.99956 18.4857 7.21444 18.6639 7.39762C18.8355 7.58785 19.0368 7.7358 19.2677 7.84148C19.5053 7.94716 19.7627 8 20.0399 8C20.3105 8 20.5646 7.94716 20.8022 7.84148C21.0464 7.7358 21.2575 7.58785 21.4357 7.39762ZM18.951 7.09115C18.8124 6.95024 18.7035 6.78115 18.6243 6.58388C18.5451 6.38661 18.5055 6.17173 18.5055 5.93923C18.5055 5.71378 18.5451 5.50242 18.6243 5.30515C18.7035 5.10788 18.8124 4.93175 18.951 4.77675C19.0896 4.6288 19.2512 4.51255 19.436 4.42801C19.6208 4.34346 19.8188 4.30119 20.03 4.30119C20.2412 4.30119 20.4392 4.34346 20.624 4.42801C20.8154 4.51255 20.9804 4.6288 21.1189 4.77675C21.2641 4.93175 21.3763 5.1114 21.4555 5.31572C21.5347 5.51299 21.5743 5.72083 21.5743 5.93923C21.5743 6.17173 21.5347 6.38661 21.4555 6.58388C21.3763 6.78115 21.2641 6.95024 21.1189 7.09115C20.9804 7.24615 20.8154 7.36592 20.624 7.45046C20.4392 7.53501 20.2412 7.57728 20.03 7.57728C19.8188 7.57728 19.6208 7.53501 19.436 7.45046C19.2512 7.36592 19.0896 7.24615 18.951 7.09115Z" fill="black"/>
<path d="M6 10.123C6 10.0023 5.94723 9.8876 5.85539 9.80928C5.11766 9.18008 4.37591 8.5625 3.63014 7.95652C3.14972 7.56162 2.6693 7.16425 2.18888 6.76442C1.71087 6.36659 1.71087 5.63341 2.18888 5.23558C2.6693 4.83575 3.14972 4.43838 3.63014 4.04348C4.37591 3.4375 5.11766 2.81992 5.85539 2.19072C5.94723 2.1124 6 1.99771 6 1.87701V1.87701C6 1.52765 5.59339 1.33628 5.32469 1.55955C4.54705 2.2057 3.77215 2.85581 3 3.50988C2.31299 4.08274 1.62381 4.6556 0.932451 5.22846C0.448957 5.62908 0.448992 6.37088 0.93152 6.77266C1.62319 7.34859 2.31268 7.92767 3 8.50988C3.77199 9.1536 4.54672 9.79732 5.3242 10.441C5.59329 10.6638 6 10.4723 6 10.123V10.123Z" fill="black"/>
</svg>
