<svg width="121" height="61" viewBox="0 0 121 61" fill="none" xmlns="http://www.w3.org/2000/svg">
<path d="M38.0871 23.6701C39.4937 23.6762 40.7542 24.1052 41.8686 24.9571V24.9571C43.7362 26.2776 42.7799 28.8906 40.6702 29.7741C39.5097 30.2601 38.3492 30.7461 37.1887 31.2321C35.9365 31.7445 34.6795 32.2621 33.4176 32.7847C31.5907 33.5414 29.4833 32.3732 29.9425 30.4499V30.4499C30.2365 29.1806 30.7464 28.0469 31.4721 27.049C32.234 26.0127 33.1753 25.189 34.296 24.5778C35.4528 23.9667 36.7165 23.6642 38.0871 23.6701ZM44.3823 41.5551C44.8067 41.2061 44.846 40.5836 44.5097 40.1489V40.1489C44.1097 39.6319 43.3486 39.5912 42.8256 39.9834C42.3076 40.3718 41.7491 40.6947 41.1501 40.9521C40.1745 41.3714 39.1276 41.5787 38.0095 41.5738C36.3144 41.5665 34.8016 41.0979 33.4711 40.1681V40.1681C31.3117 38.6589 32.4643 35.6686 34.892 34.6455C36.2363 34.0789 37.5765 33.5211 38.9124 32.9722C40.6592 32.2638 42.406 31.5481 44.1529 30.8249C45.9788 30.0689 46.9833 28.0026 45.9744 26.3032V26.3032C45.4017 25.2997 44.7381 24.4497 43.9837 23.7534C43.1936 22.9799 42.2944 22.3984 41.2862 22.009C40.2782 21.5811 39.2151 21.3648 38.0971 21.3599C36.6183 21.3535 35.2284 21.6555 33.9273 22.266C32.6625 22.838 31.541 23.6225 30.5629 24.6194C29.5847 25.6162 28.8222 26.8065 28.2751 28.1903C27.7281 29.574 27.4513 31.0359 27.4446 32.5761C27.4378 34.1547 27.702 35.6189 28.2371 36.9689C28.7723 38.3188 29.5245 39.5157 30.4938 40.5595C31.4632 41.6033 32.5777 42.4167 33.8376 42.9997C35.1335 43.5828 36.5208 43.8776 37.9995 43.884C39.4061 43.8901 40.7057 43.6262 41.8983 43.0923C42.7976 42.6897 43.6256 42.1773 44.3823 41.5551Z" fill="#2F211A"/>
<path d="M75.4706 43.642C76.0926 43.6447 76.599 43.1426 76.6017 42.5206V42.5206C76.6043 41.8986 76.1023 41.3922 75.4803 41.3896L74.6048 41.3858C73.4993 41.381 72.607 40.4809 72.6118 39.3754L72.7678 3.3436C72.775 1.67039 71.4245 0.308102 69.7513 0.300858L67.8479 0.292616C67.2259 0.289923 66.7195 0.791959 66.7168 1.41394V1.41394C66.7141 2.03593 67.2161 2.54233 67.8381 2.54503L68.6325 2.54847C69.6932 2.55306 70.5493 3.41664 70.5447 4.47734L70.47 21.7311C70.4655 22.7707 70.4618 23.6178 70.459 24.2723C70.4586 24.3736 70.4585 24.4796 70.4589 24.5902C70.4606 25.0618 69.6582 25.2794 69.3743 24.9029V24.9029C68.9081 24.2848 68.2974 23.7046 67.5423 23.1623C66.7871 22.6585 65.9233 22.2505 64.9508 21.9382C64.0144 21.6262 63.0412 21.4679 62.0314 21.4636C60.5166 21.457 59.1086 21.7589 57.8075 22.3694C56.5427 22.9414 55.4212 23.7259 54.4431 24.7227C53.4649 25.7196 52.7024 26.9099 52.1554 28.2937C51.6084 29.6774 51.3315 31.1393 51.3248 32.6795C51.318 34.2581 51.5822 35.7223 52.1173 37.0723C52.6525 38.4222 53.4048 39.6191 54.3741 40.6629C55.3434 41.7067 56.4579 42.52 57.7178 43.1031C59.0137 43.6862 60.419 43.9811 61.9338 43.9876C63.0159 43.9923 64.0264 43.8427 64.9655 43.5387C65.9406 43.2349 66.808 42.8151 67.5678 42.2794C68.2913 41.782 68.9068 41.2263 69.4144 40.6125C69.6289 40.3552 69.821 40.0949 69.9907 39.8314C70.1388 39.6014 70.6086 39.7087 70.6074 39.9823V39.9823C70.6057 40.3674 70.6039 40.7909 70.6019 41.2529V41.2529C70.5962 42.5607 71.6518 43.6254 72.9596 43.6311L75.4706 43.642ZM62.0214 23.7737C63.1394 23.7786 64.2025 23.9949 65.2105 24.4228C66.2186 24.8507 67.0996 25.4514 67.8537 26.2247C68.6437 27.0367 69.2706 28.0212 69.7345 29.1783C70.1985 30.297 70.4278 31.4916 70.4223 32.7621C70.4168 34.0327 70.1771 35.2253 69.7034 36.3398C69.2658 37.4546 68.6486 38.3952 67.8518 39.1618C67.0548 39.967 66.1504 40.5983 65.1385 41.056C64.1629 41.4753 63.098 41.6825 61.9438 41.6775C60.7536 41.6723 59.6545 41.4558 58.6465 41.0279C57.6747 40.5616 56.8118 39.9226 56.0579 39.1108C55.2678 38.3373 54.6407 37.3912 54.1767 36.2726C53.7487 35.1542 53.5375 33.9596 53.543 32.6891C53.5483 31.457 53.7697 30.3028 54.2072 29.2266C54.6448 28.1119 55.2441 27.1519 56.005 26.3467C56.7659 25.5414 57.6523 24.9099 58.6641 24.4522C59.676 23.9946 60.7951 23.7684 62.0214 23.7737Z" fill="#2F211A"/>
<path d="M89.7036 43.7036C90.3256 43.7063 90.832 43.2042 90.8347 42.5823V42.5823C90.8374 41.9603 90.3353 41.4539 89.7134 41.4512L88.8378 41.4474C87.7323 41.4426 86.84 40.5425 86.8448 39.437L86.8776 31.8516C86.8828 30.658 87.122 29.5617 87.5952 28.5626C88.0686 27.5251 88.7214 26.6808 89.5538 26.0299C90.278 25.3785 91.1097 24.8815 92.0489 24.539C92.6878 24.2896 93.3495 24.1229 94.0341 24.0389C94.647 23.9636 95.1594 23.4893 95.1903 22.8726V22.8726C95.2243 22.1935 94.6647 21.6266 93.9958 21.7488C93.585 21.8238 93.174 21.9271 92.763 22.0587C91.9684 22.3247 91.1912 22.7064 90.4317 23.2037C89.636 23.7008 88.9119 24.3329 88.2594 25.1002C87.9002 25.525 87.5776 25.9892 87.2916 26.4927C87.1399 26.7598 86.6837 26.6711 86.685 26.364V26.364C86.6858 26.1715 86.6696 25.7479 86.6364 25.0932L86.6218 24.7933C86.5464 23.2449 85.2725 22.0262 83.7223 22.0195L81.933 22.0118C81.311 22.0091 80.8046 22.5111 80.8019 23.1331V23.1331C80.7993 23.7551 81.3013 24.2615 81.9233 24.2642L82.7447 24.2677C83.8203 24.2724 84.6885 25.1481 84.6839 26.2238L84.6272 39.3192C84.6221 40.4845 83.6734 41.425 82.5081 41.42L81.5244 41.4157C80.9024 41.413 80.396 41.9151 80.3933 42.5371V42.5371C80.3906 43.159 80.8927 43.6654 81.5146 43.6681L89.7036 43.7036Z" fill="#2F211A"/>
<path d="M117.231 40.935C118.173 39.8995 118.918 38.7091 119.465 37.3639C120.048 36.0188 120.342 34.5569 120.349 32.9783C120.356 31.4382 120.074 29.9739 119.503 28.5853C118.968 27.1968 118.234 25.9808 117.3 24.9372C116.331 23.9319 115.18 23.1376 113.848 22.5542C112.552 21.9326 111.165 21.6185 109.686 21.6121C108.208 21.6057 106.818 21.9078 105.517 22.5182C104.216 23.0901 103.094 23.8746 102.152 24.8716C101.174 25.9069 100.411 27.1165 99.8642 28.5002C99.3172 29.884 99.0404 31.3459 99.0337 32.886C99.0269 34.4646 99.291 35.9482 99.826 37.3366C100.361 38.6865 101.113 39.8641 102.083 40.8694C103.016 41.9131 104.113 42.7264 105.373 43.3094C106.668 43.8926 108.074 44.1874 109.589 44.194C111.067 44.2004 112.457 43.9176 113.758 43.3457C115.095 42.7739 116.253 41.9704 117.231 40.935ZM103.659 39.2014C102.905 38.428 102.314 37.5014 101.886 36.4214C101.458 35.3415 101.246 34.1662 101.252 32.8956C101.257 31.6635 101.479 30.5094 101.916 29.4332C102.353 28.357 102.953 27.397 103.714 26.5532C104.475 25.7479 105.361 25.1165 106.373 24.6588C107.385 24.2012 108.468 23.9748 109.622 23.9798C110.776 23.9848 111.857 24.2205 112.865 24.6869C113.909 25.1535 114.808 25.7927 115.562 26.6045C116.352 27.455 116.96 28.4395 117.388 29.5579C117.817 30.6379 118.028 31.7747 118.023 32.9682C118.017 34.2388 117.796 35.4122 117.358 36.4884C116.921 37.5646 116.304 38.486 115.507 39.2527C114.746 40.0964 113.841 40.7471 112.794 41.2046C111.782 41.6622 110.699 41.8886 109.545 41.8836C108.39 41.8786 107.309 41.6429 106.301 41.1765C105.294 40.7101 104.413 40.0517 103.659 39.2014Z" fill="#2F211A"/>
<path d="M32.8106 55.464C32.8134 54.8044 32.5277 54.1763 32.0277 53.7461C28.0109 50.2901 23.9719 46.8975 19.9106 43.5682C17.3051 41.4075 14.6997 39.2335 12.0943 37.0461C9.47471 34.8468 9.49217 30.8143 12.1307 28.6377C14.7549 26.4729 17.3791 24.3216 20.0032 22.1835C24.0932 18.8895 28.1614 15.532 32.208 12.1109C32.7117 11.685 33.0028 11.0595 33.0057 10.3999V10.3999C33.014 8.49067 30.7964 7.43522 29.3227 8.64901C25.0576 12.1618 20.8074 15.6963 16.5721 19.2525C12.8149 22.358 9.04592 25.4634 5.26508 28.5687C2.59636 30.7606 2.57889 34.8405 5.22315 37.0618C8.97861 40.2167 12.7222 43.3885 16.4538 46.5774C20.6575 50.1136 24.8762 53.6498 29.1098 57.1861C30.5751 58.4101 32.8023 57.3732 32.8106 55.464V55.464Z" fill="#2F211A"/>
</svg>
