<svg width="127" height="214" viewBox="0 0 127 214" fill="none" xmlns="http://www.w3.org/2000/svg">
<path d="M69.2125 0.379524C51.514 1.58727 36.541 9.73093 27.847 22.8781C22.8445 30.4697 19.498 40.5457 18.877 49.8626C18.394 56.8675 18.3595 58.2133 18.7045 63.0788C19.153 70.1528 20.9815 81.9197 21.0505 78.3654C21.1195 76.6056 23.293 66.8746 24.7075 62.1126C32.7805 35.1281 49.3405 19.669 70.2475 19.669C88.015 19.669 104.885 31.7119 110.267 48.2063C113.993 59.5936 112.027 71.8091 104.678 82.9894C100.78 88.9246 95.6395 94.4802 89.74 99.1732C88.3255 100.312 87.0145 101.382 86.8075 101.554C85.1515 103.072 97.675 96.9302 101.47 94.3422C115.201 85.0598 123.515 72.8098 126.172 57.9718C126.862 54.107 126.862 46.2739 126.172 42.3401C123.343 26.5704 112.717 13.1816 96.8125 5.34853C89.1535 1.58727 78.769 -0.310617 69.2125 0.379524Z" fill="black"/>
<path d="M25.1905 83.9556C23.2585 84.9908 21.913 86.9577 20.9815 90.1669C20.3605 92.3063 20.257 93.5486 20.2225 99.0352C20.2225 102.555 20.2915 107.938 20.3605 111.009L20.533 116.565L18.601 119.808C14.806 126.123 9.01001 135.13 6.97451 137.89C4.55951 141.134 3.38651 143.584 2.76551 146.62C2.38601 148.622 2.48951 153.004 2.93801 153.453C3.04151 153.556 4.11101 153.384 5.31851 153.073C11.4595 151.417 14.7715 148.415 16.2895 143.204C16.6 142.169 16.738 139.339 16.7725 134.577C16.7725 126.33 16.876 126.02 20.05 123.811C24.3625 120.878 26.605 117.289 26.881 112.942C27.1225 109.387 26.467 106.006 24.466 100.139C21.6025 91.8232 21.8095 88.6486 25.432 85.0253C27.502 82.9549 27.4675 82.7824 25.1905 83.9556Z" fill="black"/>
<path d="M24.3625 159.008C23.017 161.01 19.36 165.013 13.633 170.81C5.52551 179.057 4.90451 179.782 3.52451 182.542C1.79951 186.096 1.14401 188.961 0.868012 194.447C0.661012 198.312 1.21301 211.563 1.66151 213.081C1.76501 213.426 2.35151 211.183 3.00701 208.043C4.83551 198.83 7.38851 191.963 10.735 187.028C11.4595 185.993 13.84 183.129 16.048 180.679C18.2905 178.229 20.7745 175.227 21.637 174.053C25.3975 168.808 27.571 162.77 27.1915 158.663C27.088 157.525 26.881 156.455 26.7085 156.317C26.5705 156.144 25.501 157.387 24.3625 159.008Z" fill="black"/>
</svg>
